<svg width="375" height="274" viewBox="0 0 375 274" fill="none" xmlns="http://www.w3.org/2000/svg">
<g filter="url(#filter0_d_23_80)">
<g opacity="0.6" filter="url(#filter1_f_23_80)">
<rect x="332.161" y="44" width="185.301" height="290.161" rx="12" transform="rotate(90 332.161 44)" fill="url(#paint0_linear_23_80)"/>
</g>
<rect x="332.161" y="44" width="185.301" height="290.161" rx="12" transform="rotate(90 332.161 44)" fill="url(#paint1_linear_23_80)"/>
<path d="M208.627 105.767H270.394V167.534L208.627 105.767Z" fill="url(#paint2_linear_23_80)" fill-opacity="0.6"/>
<path d="M85.0931 167.534H146.86V105.767L85.0931 167.534Z" fill="url(#paint3_linear_23_80)" fill-opacity="0.6"/>
<path d="M270.394 105.767H332.161V167.534L270.394 105.767Z" fill="url(#paint4_linear_23_80)" fill-opacity="0.6"/>
<path d="M146.86 167.534H208.627V105.767L146.86 167.534Z" fill="url(#paint5_linear_23_80)" fill-opacity="0.6"/>
<mask id="mask0_23_80" style="mask-type:alpha" maskUnits="userSpaceOnUse" x="42" y="44" width="291" height="186">
<rect x="332.161" y="44" width="185.301" height="290.161" rx="12" transform="rotate(90 332.161 44)" fill="url(#paint6_linear_23_80)"/>
</mask>
<g mask="url(#mask0_23_80)">
<path d="M208.627 44H270.394V105.767L208.627 44Z" fill="url(#paint7_linear_23_80)" fill-opacity="0.6"/>
<path d="M85.0933 105.767H146.86V44L85.0933 105.767Z" fill="url(#paint8_linear_23_80)" fill-opacity="0.6"/>
<path d="M270.394 44H332.161V105.767L270.394 44Z" fill="url(#paint9_linear_23_80)" fill-opacity="0.6"/>
<path d="M146.86 105.767H208.627V44L146.86 105.767Z" fill="url(#paint10_linear_23_80)" fill-opacity="0.6"/>
<path d="M208.627 167.534H270.394V229.301L208.627 167.534Z" fill="url(#paint11_linear_23_80)" fill-opacity="0.6"/>
<path d="M85.0933 229.301H146.86V167.534L85.0933 229.301Z" fill="url(#paint12_linear_23_80)" fill-opacity="0.6"/>
<path d="M270.394 167.534H332.161V229.301L270.394 167.534Z" fill="url(#paint13_linear_23_80)" fill-opacity="0.6"/>
<path d="M146.86 229.301H208.627V167.534L146.86 229.301Z" fill="url(#paint14_linear_23_80)" fill-opacity="0.6"/>
</g>
<path fill-rule="evenodd" clip-rule="evenodd" d="M265.428 195.596C264.107 199.224 262.925 201.993 262.8 201.748C262.675 201.504 262.136 198.978 261.601 196.133C261.066 193.289 260.407 190.6 260.137 190.159C259.666 189.388 259.455 189.357 254.823 189.375L250 189.394L252.108 190.217C253.268 190.669 254.479 191.154 254.799 191.294C255.14 191.442 255.622 192.464 255.96 193.751C256.277 194.963 257.298 198.844 258.227 202.375L259.918 208.795L262.522 208.897L265.125 209L268.881 199.624C270.946 194.468 272.738 189.968 272.863 189.624C273.067 189.065 272.817 189 270.46 189H267.83L265.428 195.596ZM274.955 190.159C274.845 190.797 274.207 194.769 273.538 198.986C272.869 203.204 272.233 207.176 272.125 207.814L271.929 208.973H274.398C276.67 208.973 276.881 208.909 277.049 208.17C277.28 207.151 280.043 189.761 280.043 189.325C280.043 189.146 278.943 189 277.599 189H275.155L274.955 190.159ZM286.587 189.524C283.715 190.563 281.796 193.566 282.291 196.245C282.565 197.728 284.465 199.608 287.013 200.919C289.459 202.177 289.901 203.582 288.142 204.505C286.744 205.239 284.632 205.191 282.521 204.377L280.777 203.704L280.556 205.357C280.434 206.267 280.265 207.272 280.179 207.59C279.967 208.379 282.37 208.973 285.768 208.973C290.039 208.973 292.57 207.652 293.827 204.768C295.248 201.508 294.078 199.236 289.705 196.763C287.265 195.383 286.842 194.395 288.283 193.437C289.183 192.838 291.7 192.849 293.625 193.461C294.443 193.721 294.549 193.529 294.962 191.048C295.163 189.837 295.096 189.674 294.267 189.354C292.941 188.842 288.179 188.948 286.587 189.524ZM303.358 189.239C302.943 189.326 302.365 189.668 302.073 190.001C301.68 190.447 296.165 203.416 294.194 208.527C294.066 208.86 294.693 208.973 296.666 208.973H299.309L299.807 207.457L300.303 205.941L303.515 205.839L306.727 205.737L306.945 206.731C307.458 209.065 307.343 208.973 309.748 208.973H312L311.772 207.814C311.647 207.176 310.742 202.722 309.761 197.916L307.977 189.178L306.044 189.13C304.981 189.104 303.772 189.153 303.358 189.239ZM305.291 198.541L305.953 201.84H303.853C301.993 201.84 301.781 201.768 302 201.216C302.136 200.872 302.737 199.24 303.335 197.589C303.934 195.938 304.47 194.735 304.527 194.914C304.583 195.094 304.927 196.726 305.291 198.541Z" fill="white"/>
<g opacity="0.6">
<rect x="105.922" y="136.65" width="33.7563" height="44.5297" rx="5" transform="rotate(90 105.922 136.65)" fill="url(#paint15_linear_23_80)" stroke="white"/>
<rect x="88.3259" y="141.769" width="23.5192" height="9.33785" rx="4.66892" transform="rotate(90 88.3259 141.769)" stroke="white"/>
<path d="M61.3921 143.529H80.0154" stroke="white"/>
<path d="M87.3921 143.529H106.015" stroke="white"/>
<path d="M61.3921 153.529H78.988" stroke="white"/>
<path d="M88.3921 153.529H105.988" stroke="white"/>
<path d="M61.3921 163.529H80.0154" stroke="white"/>
<path d="M87.3921 163.529H106.015" stroke="white"/>
</g>
<path d="M292.992 64H302.577V73.5844L292.992 64Z" fill="white"/>
<path d="M273.824 73.5844H283.408V64L273.824 73.5844Z" fill="white"/>
<path d="M302.577 64H312.161V73.5844L302.577 64Z" fill="white"/>
<path d="M283.408 73.5844H292.992V64L283.408 73.5844Z" fill="white"/>
<g filter="url(#filter2_i_23_80)">
<path d="M64.5289 120.792L64.5289 113.686L62.6613 113.686L62.6613 112.516L66.38 111.951L66.38 120.792H64.5289ZM74.0416 113.736C74.0416 113.077 74.1772 112.626 74.4484 112.383C74.7195 112.139 75.2508 112.018 76.0421 112.018L80.5494 112.018C81.3408 112.018 81.872 112.139 82.1432 112.383C82.4199 112.626 82.5582 113.077 82.5582 113.736V114.3C82.5582 114.726 82.4918 115.053 82.359 115.28C82.2317 115.507 81.9191 115.775 81.421 116.085L76.2662 119.214L81.3629 119.214L81.3629 117.919L82.9816 118.376V119.073C82.9816 119.732 82.8432 120.183 82.5665 120.426C82.2954 120.67 81.7641 120.792 80.9728 120.792L73.5934 120.792V119.995C73.5934 119.607 73.6736 119.308 73.8341 119.098C74.0001 118.888 74.2906 118.653 74.7057 118.393L80.7736 114.657V113.512L75.7765 113.512V115.321L74.0416 114.873V113.736ZM88.6842 120.792C87.8929 120.792 87.3588 120.67 87.0822 120.426C86.811 120.183 86.6754 119.732 86.6754 119.073V118.359L88.4767 117.986L88.4767 119.214H93.2081C93.5457 119.214 93.7698 119.162 93.8805 119.057C93.9967 118.951 94.0548 118.741 94.0548 118.426V117.787C94.0548 117.466 93.9967 117.253 93.8805 117.147C93.7643 117.037 93.5402 116.981 93.2081 116.981H90.2448V115.554H92.8844C93.2164 115.554 93.4378 115.501 93.5485 115.396C93.6591 115.291 93.7145 115.078 93.7145 114.757V114.317C93.7145 113.99 93.6591 113.775 93.5485 113.669C93.4378 113.564 93.2164 113.512 92.8844 113.512H88.5514V114.607L86.8165 114.284V113.736C86.8165 113.077 86.9521 112.626 87.2233 112.383C87.4944 112.139 88.0257 112.018 88.817 112.018H93.5651C94.3564 112.018 94.8877 112.139 95.1588 112.383C95.43 112.626 95.5656 113.077 95.5656 113.736V114.533C95.5656 115.047 95.441 115.429 95.192 115.678C94.943 115.927 94.5031 116.102 93.8722 116.201C94.575 116.268 95.0896 116.445 95.4161 116.732C95.7426 117.02 95.9059 117.438 95.9059 117.986V118.907C95.9059 119.627 95.7509 120.122 95.441 120.393C95.1311 120.659 94.5778 120.792 93.7809 120.792H88.6842ZM105.983 120.891V118.857L99.3341 118.857V117.388L105.908 111.918H107.834L107.834 117.388H109.959V118.857H107.834V120.891H105.983ZM105.983 117.388L105.983 113.462L101.185 117.388L105.983 117.388ZM119.903 116.882L120.401 112.018H127.98L127.831 113.512H121.705L121.505 115.213C122.258 115.136 122.919 115.081 123.489 115.047C124.065 115.014 124.588 114.998 125.058 114.998C126.508 114.998 127.595 115.247 128.32 115.745C129.045 116.237 129.408 116.979 129.408 117.969C129.408 118.999 129.026 119.746 128.262 120.21C127.504 120.675 126.276 120.908 124.577 120.908C123.686 120.908 122.881 120.877 122.161 120.816C121.447 120.756 120.841 120.667 120.343 120.551L119.903 118.857C120.761 119.012 121.569 119.129 122.327 119.206C123.091 119.278 123.824 119.314 124.527 119.314C125.628 119.314 126.403 119.206 126.851 118.99C127.299 118.769 127.524 118.401 127.524 117.886C127.524 117.399 127.305 117.051 126.868 116.84C126.431 116.63 125.692 116.525 124.651 116.525C123.987 116.525 123.257 116.555 122.46 116.616C121.663 116.677 120.811 116.766 119.903 116.882ZM134.637 116.832C134.626 116.904 134.618 116.976 134.612 117.048C134.607 117.12 134.604 117.217 134.604 117.338C134.604 118.185 134.715 118.711 134.936 118.916C135.163 119.115 135.658 119.214 136.422 119.214L138.871 119.214C139.474 119.214 139.889 119.14 140.116 118.99C140.348 118.841 140.464 118.564 140.464 118.16V117.679C140.464 117.269 140.334 116.993 140.074 116.849C139.82 116.699 139.305 116.625 138.53 116.625C137.905 116.625 137.266 116.644 136.613 116.683C135.965 116.716 135.307 116.766 134.637 116.832ZM134.754 115.504C135.423 115.404 136.079 115.33 136.721 115.28C137.368 115.224 138.005 115.197 138.63 115.197C140.047 115.197 141.018 115.363 141.544 115.695C142.069 116.021 142.332 116.611 142.332 117.463V118.65C142.332 119.38 142.089 119.92 141.602 120.269C141.115 120.617 140.357 120.792 139.327 120.792L135.617 120.792C134.51 120.792 133.752 120.598 133.342 120.21C132.933 119.823 132.728 119.115 132.728 118.085V116.932C132.728 115.299 133.293 114.037 134.422 113.146C135.556 112.25 137.152 111.802 139.211 111.802C139.289 111.802 139.372 111.805 139.46 111.81C139.554 111.81 139.679 111.818 139.834 111.835L141.046 113.246H140.481C138.616 113.246 137.269 113.418 136.439 113.761C135.609 114.098 135.047 114.679 134.754 115.504ZM148.715 120.941L153.447 113.512H147.645V115.404L145.794 115.081V112.018L155.539 112.018V113.429L150.948 120.941H148.715ZM166.438 112.018C167.229 112.018 167.76 112.139 168.031 112.383C168.308 112.626 168.446 113.077 168.446 113.736V114.533C168.446 115.042 168.322 115.424 168.073 115.678C167.824 115.933 167.387 116.118 166.761 116.234C167.409 116.306 167.885 116.483 168.189 116.766C168.493 117.048 168.646 117.455 168.646 117.986V118.907C168.646 119.621 168.488 120.114 168.172 120.385C167.863 120.656 167.306 120.792 166.504 120.792L160.901 120.792C160.104 120.792 159.551 120.659 159.241 120.393C158.931 120.122 158.776 119.627 158.776 118.907V117.986C158.776 117.46 158.928 117.056 159.233 116.774C159.537 116.486 160.007 116.306 160.644 116.234C160.024 116.113 159.587 115.924 159.332 115.67C159.083 115.415 158.959 115.036 158.959 114.533V113.736C158.959 113.077 159.094 112.626 159.365 112.383C159.642 112.139 160.176 112.018 160.967 112.018L166.438 112.018ZM165.757 113.512L161.665 113.512C161.327 113.512 161.1 113.567 160.984 113.678C160.868 113.783 160.81 113.996 160.81 114.317V114.757C160.81 115.072 160.868 115.285 160.984 115.396C161.1 115.501 161.327 115.554 161.665 115.554L165.757 115.554C166.089 115.554 166.31 115.501 166.421 115.396C166.537 115.291 166.595 115.078 166.595 114.757V114.317C166.595 113.99 166.537 113.775 166.421 113.669C166.31 113.564 166.089 113.512 165.757 113.512ZM165.948 116.981L161.457 116.981C161.125 116.981 160.904 117.034 160.793 117.139C160.682 117.244 160.627 117.46 160.627 117.787V118.426C160.627 118.747 160.68 118.96 160.785 119.065C160.89 119.165 161.114 119.214 161.457 119.214L165.948 119.214C166.285 119.214 166.507 119.165 166.612 119.065C166.723 118.96 166.778 118.747 166.778 118.426V117.787C166.778 117.46 166.723 117.244 166.612 117.139C166.501 117.034 166.28 116.981 165.948 116.981ZM186.285 117.305C185.654 117.405 185.015 117.479 184.367 117.529C183.72 117.574 183.067 117.596 182.408 117.596C180.992 117.596 180.018 117.432 179.486 117.106C178.961 116.774 178.698 116.185 178.698 115.338V114.159C178.698 113.429 178.939 112.889 179.42 112.541C179.907 112.192 180.665 112.018 181.694 112.018H185.397C186.503 112.018 187.262 112.211 187.671 112.599C188.081 112.986 188.285 113.694 188.285 114.724L188.285 115.877C188.285 117.51 187.721 118.772 186.592 119.663C185.463 120.554 183.869 120.999 181.811 120.999C181.639 120.999 181.509 120.996 181.421 120.991C181.338 120.991 181.257 120.985 181.18 120.974L179.976 119.571H180.532C182.403 119.571 183.753 119.4 184.583 119.057C185.419 118.714 185.986 118.13 186.285 117.305ZM186.384 115.96C186.401 115.861 186.412 115.767 186.418 115.678C186.429 115.584 186.434 115.504 186.434 115.438C186.434 114.574 186.321 114.037 186.094 113.827C185.867 113.617 185.369 113.512 184.6 113.512H182.168C181.553 113.512 181.13 113.589 180.898 113.744C180.665 113.899 180.549 114.187 180.549 114.607V115.097C180.549 115.523 180.679 115.811 180.939 115.96C181.199 116.11 181.722 116.185 182.508 116.185C183.061 116.185 183.665 116.168 184.318 116.135C184.976 116.096 185.665 116.038 186.384 115.96ZM193.465 119.214L199.732 119.214L199.732 113.512L193.465 113.512L193.465 119.214ZM191.63 114.093C191.63 113.29 191.769 112.745 192.046 112.458C192.328 112.164 192.856 112.018 193.631 112.018L199.566 112.018C200.346 112.018 200.875 112.164 201.151 112.458C201.434 112.745 201.575 113.29 201.575 114.093L201.575 118.716C201.575 119.519 201.434 120.067 201.151 120.36C200.875 120.648 200.346 120.792 199.566 120.792L193.631 120.792C192.856 120.792 192.328 120.648 192.046 120.36C191.769 120.067 191.63 119.519 191.63 118.716L191.63 114.093ZM209.195 120.792L209.195 113.686H207.327V112.516L211.046 111.951L211.046 120.792H209.195ZM218.708 113.736C218.708 113.077 218.843 112.626 219.114 112.383C219.386 112.139 219.917 112.018 220.708 112.018H225.215C226.007 112.018 226.538 112.139 226.809 112.383C227.086 112.626 227.224 113.077 227.224 113.736V114.3C227.224 114.726 227.158 115.053 227.025 115.28C226.898 115.507 226.585 115.775 226.087 116.085L220.932 119.214H226.029V117.919L227.648 118.376V119.073C227.648 119.732 227.509 120.183 227.233 120.426C226.961 120.67 226.43 120.792 225.639 120.792L218.259 120.792V119.995C218.259 119.607 218.34 119.308 218.5 119.098C218.666 118.888 218.957 118.653 219.372 118.393L225.44 114.657V113.512H220.443L220.443 115.321L218.708 114.873V113.736ZM239.941 120.792C239.15 120.792 238.616 120.67 238.339 120.426C238.068 120.183 237.932 119.732 237.932 119.073V118.359L239.734 117.986V119.214H244.465C244.803 119.214 245.027 119.162 245.137 119.057C245.254 118.951 245.312 118.741 245.312 118.426V117.787C245.312 117.466 245.254 117.253 245.137 117.147C245.021 117.037 244.797 116.981 244.465 116.981H241.502V115.554H244.141C244.473 115.554 244.695 115.501 244.805 115.396C244.916 115.291 244.971 115.078 244.971 114.757V114.317C244.971 113.99 244.916 113.775 244.805 113.669C244.695 113.564 244.473 113.512 244.141 113.512H239.808V114.607L238.073 114.284V113.736C238.073 113.077 238.209 112.626 238.48 112.383C238.751 112.139 239.283 112.018 240.074 112.018H244.822C245.613 112.018 246.144 112.139 246.416 112.383C246.687 112.626 246.822 113.077 246.822 113.736V114.533C246.822 115.047 246.698 115.429 246.449 115.678C246.2 115.927 245.76 116.102 245.129 116.201C245.832 116.268 246.346 116.445 246.673 116.732C246.999 117.02 247.163 117.438 247.163 117.986V118.907C247.163 119.627 247.008 120.122 246.698 120.393C246.388 120.659 245.835 120.792 245.038 120.792H239.941ZM257.24 120.891V118.857L250.591 118.857V117.388L257.165 111.918H259.091V117.388H261.216V118.857H259.091V120.891H257.24ZM257.24 117.388V113.462L252.442 117.388L257.24 117.388ZM264.569 116.882L265.068 112.018L272.646 112.018L272.497 113.512L266.371 113.512L266.172 115.213C266.924 115.136 267.585 115.081 268.155 115.047C268.731 115.014 269.254 114.998 269.724 114.998C271.174 114.998 272.262 115.247 272.986 115.745C273.711 116.237 274.074 116.979 274.074 117.969C274.074 118.999 273.692 119.746 272.928 120.21C272.17 120.675 270.942 120.908 269.243 120.908C268.352 120.908 267.547 120.877 266.827 120.816C266.113 120.756 265.507 120.667 265.009 120.551L264.569 118.857C265.427 119.012 266.235 119.129 266.993 119.206C267.757 119.278 268.49 119.314 269.193 119.314C270.294 119.314 271.069 119.206 271.517 118.99C271.965 118.769 272.19 118.401 272.19 117.886C272.19 117.399 271.971 117.051 271.534 116.84C271.097 116.63 270.358 116.525 269.318 116.525C268.653 116.525 267.923 116.555 267.126 116.616C266.329 116.677 265.477 116.766 264.569 116.882ZM279.303 116.832C279.292 116.904 279.284 116.976 279.278 117.048C279.273 117.12 279.27 117.217 279.27 117.338C279.27 118.185 279.381 118.711 279.602 118.916C279.829 119.115 280.324 119.214 281.088 119.214H283.537C284.14 119.214 284.555 119.14 284.782 118.99C285.014 118.841 285.13 118.564 285.13 118.16V117.679C285.13 117.269 285 116.993 284.74 116.849C284.486 116.699 283.971 116.625 283.196 116.625C282.571 116.625 281.932 116.644 281.279 116.683C280.631 116.716 279.973 116.766 279.303 116.832ZM279.42 115.504C280.089 115.404 280.745 115.33 281.387 115.28C282.034 115.224 282.671 115.197 283.296 115.197C284.713 115.197 285.684 115.363 286.21 115.695C286.735 116.021 286.998 116.611 286.998 117.463V118.65C286.998 119.38 286.755 119.92 286.268 120.269C285.781 120.617 285.023 120.792 283.993 120.792H280.283C279.176 120.792 278.418 120.598 278.008 120.21C277.599 119.823 277.394 119.115 277.394 118.085V116.932C277.394 115.299 277.959 114.037 279.088 113.146C280.222 112.25 281.818 111.802 283.877 111.802C283.955 111.802 284.038 111.805 284.126 111.81C284.22 111.81 284.345 111.818 284.5 111.835L285.712 113.246H285.147C283.282 113.246 281.935 113.418 281.105 113.761C280.275 114.098 279.713 114.679 279.42 115.504Z" fill="url(#paint16_linear_23_80)"/>
</g>
</g>
<defs>
<filter id="filter0_d_23_80" x="37.9999" y="44" width="298.161" height="193.301" filterUnits="userSpaceOnUse" color-interpolation-filters="sRGB">
<feFlood flood-opacity="0" result="BackgroundImageFix"/>
<feColorMatrix in="SourceAlpha" type="matrix" values="0 0 0 0 0 0 0 0 0 0 0 0 0 0 0 0 0 0 127 0" result="hardAlpha"/>
<feOffset dy="4"/>
<feGaussianBlur stdDeviation="2"/>
<feComposite in2="hardAlpha" operator="out"/>
<feColorMatrix type="matrix" values="0 0 0 0 0 0 0 0 0 0 0 0 0 0 0 0 0 0 0.25 0"/>
<feBlend mode="normal" in2="BackgroundImageFix" result="effect1_dropShadow_23_80"/>
<feBlend mode="normal" in="SourceGraphic" in2="effect1_dropShadow_23_80" result="shape"/>
</filter>
<filter id="filter1_f_23_80" x="-2.00012" y="0" width="378.161" height="273.301" filterUnits="userSpaceOnUse" color-interpolation-filters="sRGB">
<feFlood flood-opacity="0" result="BackgroundImageFix"/>
<feBlend mode="normal" in="SourceGraphic" in2="BackgroundImageFix" result="shape"/>
<feGaussianBlur stdDeviation="22" result="effect1_foregroundBlur_23_80"/>
</filter>
<filter id="filter2_i_23_80" x="62.6613" y="111.802" width="226.337" height="10.1973" filterUnits="userSpaceOnUse" color-interpolation-filters="sRGB">
<feFlood flood-opacity="0" result="BackgroundImageFix"/>
<feBlend mode="normal" in="SourceGraphic" in2="BackgroundImageFix" result="shape"/>
<feColorMatrix in="SourceAlpha" type="matrix" values="0 0 0 0 0 0 0 0 0 0 0 0 0 0 0 0 0 0 127 0" result="hardAlpha"/>
<feOffset dx="2" dy="1"/>
<feGaussianBlur stdDeviation="1"/>
<feComposite in2="hardAlpha" operator="arithmetic" k2="-1" k3="1"/>
<feColorMatrix type="matrix" values="0 0 0 0 0 0 0 0 0 0 0 0 0 0 0 0 0 0 0.15 0"/>
<feBlend mode="normal" in2="shape" result="effect1_innerShadow_23_80"/>
</filter>
<linearGradient id="paint0_linear_23_80" x1="424.811" y1="44" x2="424.811" y2="334.161" gradientUnits="userSpaceOnUse">
<stop stop-color="#E42C64"/>
<stop offset="1" stop-color="#614AD3"/>
</linearGradient>
<linearGradient id="paint1_linear_23_80" x1="424.811" y1="44" x2="424.811" y2="334.161" gradientUnits="userSpaceOnUse">
<stop stop-color="#E42C64"/>
<stop offset="1" stop-color="#614AD3"/>
</linearGradient>
<linearGradient id="paint2_linear_23_80" x1="208.627" y1="105.767" x2="208.627" y2="167.534" gradientUnits="userSpaceOnUse">
<stop stop-color="white" stop-opacity="0.5"/>
<stop offset="1" stop-color="white" stop-opacity="0.1"/>
</linearGradient>
<linearGradient id="paint3_linear_23_80" x1="208.627" y1="105.767" x2="208.627" y2="167.534" gradientUnits="userSpaceOnUse">
<stop stop-color="white" stop-opacity="0.5"/>
<stop offset="1" stop-color="white" stop-opacity="0.1"/>
</linearGradient>
<linearGradient id="paint4_linear_23_80" x1="208.627" y1="105.767" x2="208.627" y2="167.534" gradientUnits="userSpaceOnUse">
<stop stop-color="white" stop-opacity="0.5"/>
<stop offset="1" stop-color="white" stop-opacity="0.1"/>
</linearGradient>
<linearGradient id="paint5_linear_23_80" x1="208.627" y1="105.767" x2="208.627" y2="167.534" gradientUnits="userSpaceOnUse">
<stop stop-color="white" stop-opacity="0.5"/>
<stop offset="1" stop-color="white" stop-opacity="0.1"/>
</linearGradient>
<linearGradient id="paint6_linear_23_80" x1="424.812" y1="44" x2="424.812" y2="334.161" gradientUnits="userSpaceOnUse">
<stop stop-color="#E42C64"/>
<stop offset="1" stop-color="#614AD3"/>
</linearGradient>
<linearGradient id="paint7_linear_23_80" x1="208.627" y1="44" x2="208.627" y2="105.767" gradientUnits="userSpaceOnUse">
<stop stop-color="white" stop-opacity="0.5"/>
<stop offset="1" stop-color="white" stop-opacity="0.1"/>
</linearGradient>
<linearGradient id="paint8_linear_23_80" x1="208.627" y1="44" x2="208.627" y2="105.767" gradientUnits="userSpaceOnUse">
<stop stop-color="white" stop-opacity="0.5"/>
<stop offset="1" stop-color="white" stop-opacity="0.1"/>
</linearGradient>
<linearGradient id="paint9_linear_23_80" x1="208.627" y1="44" x2="208.627" y2="105.767" gradientUnits="userSpaceOnUse">
<stop stop-color="white" stop-opacity="0.5"/>
<stop offset="1" stop-color="white" stop-opacity="0.1"/>
</linearGradient>
<linearGradient id="paint10_linear_23_80" x1="208.627" y1="44" x2="208.627" y2="105.767" gradientUnits="userSpaceOnUse">
<stop stop-color="white" stop-opacity="0.5"/>
<stop offset="1" stop-color="white" stop-opacity="0.1"/>
</linearGradient>
<linearGradient id="paint11_linear_23_80" x1="208.627" y1="167.534" x2="208.627" y2="229.301" gradientUnits="userSpaceOnUse">
<stop stop-color="white" stop-opacity="0.5"/>
<stop offset="1" stop-color="white" stop-opacity="0.1"/>
</linearGradient>
<linearGradient id="paint12_linear_23_80" x1="208.627" y1="167.534" x2="208.627" y2="229.301" gradientUnits="userSpaceOnUse">
<stop stop-color="white" stop-opacity="0.5"/>
<stop offset="1" stop-color="white" stop-opacity="0.1"/>
</linearGradient>
<linearGradient id="paint13_linear_23_80" x1="208.627" y1="167.534" x2="208.627" y2="229.301" gradientUnits="userSpaceOnUse">
<stop stop-color="white" stop-opacity="0.5"/>
<stop offset="1" stop-color="white" stop-opacity="0.1"/>
</linearGradient>
<linearGradient id="paint14_linear_23_80" x1="208.627" y1="167.534" x2="208.627" y2="229.301" gradientUnits="userSpaceOnUse">
<stop stop-color="white" stop-opacity="0.5"/>
<stop offset="1" stop-color="white" stop-opacity="0.1"/>
</linearGradient>
<linearGradient id="paint15_linear_23_80" x1="107.22" y1="138.397" x2="138.299" y2="180.922" gradientUnits="userSpaceOnUse">
<stop stop-color="#C4C4C4"/>
<stop offset="1" stop-color="#C4C4C4" stop-opacity="0.3"/>
</linearGradient>
<linearGradient id="paint16_linear_23_80" x1="58.5109" y1="124.792" x2="289.511" y2="124.791" gradientUnits="userSpaceOnUse">
<stop stop-color="#D0E4F0"/>
<stop offset="1" stop-color="#D7E3F9"/>
</linearGradient>
</defs>
</svg>
