<svg width="750" height="355" viewBox="0 0 750 355" fill="none" xmlns="http://www.w3.org/2000/svg">
<g filter="url(#filter0_d_205_158)">
<path d="M75.8848 316.316C76.1191 320.096 79.2686 322.513 83.9561 322.513C88.9658 322.513 92.1006 319.979 92.1006 315.936C92.1006 312.757 90.3135 310.999 85.9775 309.988L83.6484 309.417C80.8945 308.772 79.7812 307.908 79.7812 306.399C79.7812 304.495 81.5098 303.25 84.1025 303.25C86.5635 303.25 88.2627 304.466 88.5703 306.414H91.7637C91.5732 302.854 88.4385 300.35 84.1465 300.35C79.5322 300.35 76.4561 302.854 76.4561 306.619C76.4561 309.725 78.1992 311.57 82.0225 312.464L84.7471 313.123C87.5449 313.782 88.7754 314.749 88.7754 316.36C88.7754 318.235 86.8418 319.598 84.2051 319.598C81.3779 319.598 79.415 318.323 79.1367 316.316H75.8848Z" fill="#33404F"/>
<path d="M191.527 322V300.862H187.689L180.951 316.917H180.702L173.978 300.862H170.14V322H173.187V306.736H173.392L179.588 321.385H182.078L188.275 306.736H188.48V322H191.527Z" fill="#33404F"/>
<path d="M279.307 322V303.851H285.943V300.862H269.376V303.851H276.026V322H279.307Z" fill="#33404F"/>
<path d="M374.883 303.487H375.088L379.629 319H382.72L388.433 297.862H385.02L381.152 314.049H380.947L376.509 297.862H373.462L369.053 314.049H368.848L364.966 297.862H361.553L367.251 319H370.356L374.883 303.487Z" fill="#33404F"/>
<path d="M473.974 322V303.851H480.61V300.862H464.042V303.851H470.693V322H473.974Z" fill="#33404F"/>
<path d="M565.869 322V313.24H574.951V310.34H565.869V303.851H575.786V300.862H562.588V322H565.869Z" fill="#33404F"/>
<path d="M657.885 316.316C658.119 320.096 661.269 322.513 665.956 322.513C670.966 322.513 674.101 319.979 674.101 315.936C674.101 312.757 672.313 310.999 667.978 309.988L665.648 309.417C662.895 308.772 661.781 307.908 661.781 306.399C661.781 304.495 663.51 303.25 666.103 303.25C668.563 303.25 670.263 304.466 670.57 306.414H673.764C673.573 302.854 670.438 300.35 666.146 300.35C661.532 300.35 658.456 302.854 658.456 306.619C658.456 309.725 660.199 311.57 664.022 312.464L666.747 313.123C669.545 313.782 670.775 314.749 670.775 316.36C670.775 318.235 668.842 319.598 666.205 319.598C663.378 319.598 661.415 318.323 661.137 316.316H657.885Z" fill="#33404F"/>
</g>
<path d="M64 226.303C75.8333 182.137 117.2 109.403 188 171.803C276.5 249.803 306.5 185.803 327 139.303C347.5 92.8032 402.5 17.8032 463.5 102.303C524.5 186.803 567 166.303 591.5 122.803C616 79.3032 652.5 92.8032 682.5 102.303" stroke="#F56A8D" stroke-width="3" stroke-linecap="round" stroke-dasharray="10 10"/>
<circle cx="628" cy="53" r="13" fill="#00DDA3"/>
<g filter="url(#filter1_d_205_158)">
<path d="M62.5 227.5C70.1667 171.667 105.7 74.4 186.5 132C287.5 204 332.5 189 355.5 155C378.5 121 426 48.0001 495.5 94.0001C565 140 582.5 101.5 599 76C615.5 50.5 630.5 42 674 68" stroke="#00DDA3" stroke-width="3" stroke-linecap="round" stroke-dasharray="10 10"/>
</g>
<circle cx="401" cy="65" r="13" fill="#F56A8D"/>
<mask id="path-12-outside-1_205_158" maskUnits="userSpaceOnUse" x="355" y="15" width="69" height="28" fill="black">
<rect fill="white" x="355" y="15" width="69" height="28"/>
<path d="M365.477 41.9922V40.0732C369.769 39.707 372.244 37.4658 372.244 33.877C372.244 30.8447 370.516 28.9844 366.839 28.0908L365.477 27.7832V21.4697C367.41 21.7041 368.729 22.9639 368.787 24.5752H371.849C371.761 21.3086 369.271 18.9941 365.477 18.6572V16.6357H363.47V18.6572C359.515 19.0234 357.112 21.2646 357.112 24.6484C357.112 27.5049 358.899 29.4678 362.166 30.3027L363.47 30.6396V37.3193C361.287 37.0703 359.881 35.8545 359.734 34.1113H356.629C356.644 37.5098 359.28 39.8096 363.47 40.0879V41.9922H365.477ZM369.124 34.2139C369.124 36.0742 367.791 37.2168 365.477 37.3486V31.0205C367.967 31.5186 369.124 32.5293 369.124 34.2139ZM360.247 24.3848C360.247 22.7881 361.595 21.5576 363.47 21.4551V27.3584C361.36 26.9336 360.247 25.8936 360.247 24.3848ZM381.751 40H385.032V18.8623H381.766L376.199 22.7881V26.1426L381.502 22.3926H381.751V40ZM392.078 40H395.521L404.72 21.8359V18.8623H390.32V21.7773H401.395V22.0117L392.078 40ZM416.731 40H419.896V35.9131H422.811V32.9834H419.896V18.8623H415.223C411.458 24.502 408.309 29.4092 406.419 32.8662V35.9131H416.731V40ZM409.568 32.8516C412.059 28.5303 414.49 24.7803 416.585 21.748H416.775V33.0566H409.568V32.8516Z"/>
</mask>
<path d="M365.477 41.9922V40.0732C369.769 39.707 372.244 37.4658 372.244 33.877C372.244 30.8447 370.516 28.9844 366.839 28.0908L365.477 27.7832V21.4697C367.41 21.7041 368.729 22.9639 368.787 24.5752H371.849C371.761 21.3086 369.271 18.9941 365.477 18.6572V16.6357H363.47V18.6572C359.515 19.0234 357.112 21.2646 357.112 24.6484C357.112 27.5049 358.899 29.4678 362.166 30.3027L363.47 30.6396V37.3193C361.287 37.0703 359.881 35.8545 359.734 34.1113H356.629C356.644 37.5098 359.28 39.8096 363.47 40.0879V41.9922H365.477ZM369.124 34.2139C369.124 36.0742 367.791 37.2168 365.477 37.3486V31.0205C367.967 31.5186 369.124 32.5293 369.124 34.2139ZM360.247 24.3848C360.247 22.7881 361.595 21.5576 363.47 21.4551V27.3584C361.36 26.9336 360.247 25.8936 360.247 24.3848ZM381.751 40H385.032V18.8623H381.766L376.199 22.7881V26.1426L381.502 22.3926H381.751V40ZM392.078 40H395.521L404.72 21.8359V18.8623H390.32V21.7773H401.395V22.0117L392.078 40ZM416.731 40H419.896V35.9131H422.811V32.9834H419.896V18.8623H415.223C411.458 24.502 408.309 29.4092 406.419 32.8662V35.9131H416.731V40ZM409.568 32.8516C412.059 28.5303 414.49 24.7803 416.585 21.748H416.775V33.0566H409.568V32.8516Z" fill="#F56A8D"/>
<path d="M365.477 41.9922V42.9922H366.477V41.9922H365.477ZM365.477 40.0732L365.392 39.0769L364.477 39.1549V40.0732H365.477ZM366.839 28.0908L367.075 27.1191L367.067 27.1172L367.059 27.1154L366.839 28.0908ZM365.477 27.7832H364.477V28.5826L365.256 28.7586L365.477 27.7832ZM365.477 21.4697L365.597 20.477L364.477 20.3412V21.4697H365.477ZM368.787 24.5752L367.788 24.6115L367.823 25.5752H368.787V24.5752ZM371.849 24.5752V25.5752H372.876L372.848 24.5483L371.849 24.5752ZM365.477 18.6572H364.477V19.5724L365.388 19.6533L365.477 18.6572ZM365.477 16.6357H366.477V15.6357H365.477V16.6357ZM363.47 16.6357V15.6357H362.47V16.6357H363.47ZM363.47 18.6572L363.562 19.653L364.47 19.5689V18.6572H363.47ZM362.166 30.3027L362.416 29.3345L362.414 29.3339L362.166 30.3027ZM363.47 30.6396H364.47V29.8652L363.72 29.6715L363.47 30.6396ZM363.47 37.3193L363.356 38.3129L364.47 38.4399V37.3193H363.47ZM359.734 34.1113L360.731 34.0276L360.654 33.1113H359.734V34.1113ZM356.629 34.1113V33.1113H355.625L355.629 34.1156L356.629 34.1113ZM363.47 40.0879H364.47V39.1521L363.536 39.0901L363.47 40.0879ZM363.47 41.9922H362.47V42.9922H363.47V41.9922ZM365.477 37.3486H364.477V38.4072L365.533 38.347L365.477 37.3486ZM365.477 31.0205L365.673 30.0399L364.477 29.8007V31.0205H365.477ZM363.47 21.4551H364.47V20.3989L363.415 20.4566L363.47 21.4551ZM363.47 27.3584L363.272 28.3387L364.47 28.5799V27.3584H363.47ZM366.477 41.9922V40.0732H364.477V41.9922H366.477ZM365.562 41.0696C367.853 40.8741 369.779 40.1686 371.144 38.9222C372.53 37.657 373.244 35.9197 373.244 33.877H371.244C371.244 35.4231 370.72 36.6008 369.796 37.445C368.85 38.308 367.392 38.9062 365.392 39.0769L365.562 41.0696ZM373.244 33.877C373.244 32.156 372.746 30.6733 371.651 29.4997C370.578 28.3492 369.02 27.5917 367.075 27.1191L366.603 29.0625C368.335 29.4834 369.479 30.1029 370.189 30.8641C370.878 31.6021 371.244 32.5657 371.244 33.877H373.244ZM367.059 27.1154L365.697 26.8078L365.256 28.7586L366.619 29.0663L367.059 27.1154ZM366.477 27.7832V21.4697H364.477V27.7832H366.477ZM365.356 22.4625C366.931 22.6533 367.751 23.6117 367.788 24.6115L369.786 24.5389C369.706 22.3161 367.889 20.7549 365.597 20.477L365.356 22.4625ZM368.787 25.5752H371.849V23.5752H368.787V25.5752ZM372.848 24.5483C372.797 22.6518 372.041 21.0004 370.733 19.7849C369.434 18.5781 367.641 17.8455 365.565 17.6611L365.388 19.6533C367.106 19.8059 368.455 20.399 369.372 21.2502C370.279 22.0928 370.812 23.232 370.849 24.6021L372.848 24.5483ZM366.477 18.6572V16.6357H364.477V18.6572H366.477ZM365.477 15.6357H363.47V17.6357H365.477V15.6357ZM362.47 16.6357V18.6572H364.47V16.6357H362.47ZM363.378 17.6615C361.239 17.8595 359.42 18.574 358.123 19.7925C356.811 21.0251 356.112 22.7025 356.112 24.6484H358.112C358.112 23.2105 358.614 22.0754 359.493 21.2499C360.386 20.4104 361.746 19.8211 363.562 19.653L363.378 17.6615ZM356.112 24.6484C356.112 26.3002 356.635 27.7497 357.67 28.9018C358.692 30.04 360.151 30.82 361.918 31.2716L362.414 29.3339C360.914 28.9506 359.846 28.3316 359.158 27.5655C358.483 26.8133 358.112 25.8531 358.112 24.6484H356.112ZM361.916 31.2709L363.22 31.6078L363.72 29.6715L362.416 29.3345L361.916 31.2709ZM362.47 30.6396V37.3193H364.47V30.6396H362.47ZM363.583 36.3258C361.712 36.1123 360.825 35.1502 360.731 34.0276L358.738 34.1951C358.937 36.5588 360.862 38.0283 363.356 38.3129L363.583 36.3258ZM359.734 33.1113H356.629V35.1113H359.734V33.1113ZM355.629 34.1156C355.637 36.0947 356.42 37.7947 357.826 39.0229C359.215 40.2359 361.149 40.9359 363.403 41.0857L363.536 39.0901C361.601 38.9616 360.122 38.3724 359.142 37.5164C358.179 36.6756 357.635 35.5264 357.629 34.107L355.629 34.1156ZM362.47 40.0879V41.9922H364.47V40.0879H362.47ZM363.47 42.9922H365.477V40.9922H363.47V42.9922ZM368.124 34.2139C368.124 34.8834 367.896 35.3454 367.517 35.6708C367.112 36.0182 366.437 36.2923 365.42 36.3503L365.533 38.347C366.831 38.2731 367.979 37.9101 368.82 37.1881C369.686 36.4441 370.124 35.4046 370.124 34.2139H368.124ZM366.477 37.3486V31.0205H364.477V37.3486H366.477ZM365.28 32.0011C366.45 32.235 367.165 32.5651 367.576 32.9248C367.942 33.245 368.124 33.6357 368.124 34.2139H370.124C370.124 33.1075 369.728 32.1505 368.893 31.4197C368.103 30.7284 366.993 30.3041 365.673 30.0399L365.28 32.0011ZM361.247 24.3848C361.247 23.45 362.038 22.5349 363.524 22.4536L363.415 20.4566C361.151 20.5804 359.247 22.1261 359.247 24.3848H361.247ZM362.47 21.4551V27.3584H364.47V21.4551H362.47ZM363.667 26.3781C362.72 26.1874 362.108 25.8789 361.747 25.5442C361.412 25.2341 361.247 24.864 361.247 24.3848H359.247C359.247 25.4143 359.639 26.3186 360.388 27.0119C361.111 27.6807 362.11 28.1046 363.272 28.3387L363.667 26.3781ZM381.751 40H380.751V41H381.751V40ZM385.032 40V41H386.032V40H385.032ZM385.032 18.8623H386.032V17.8623H385.032V18.8623ZM381.766 18.8623V17.8623H381.448L381.189 18.0451L381.766 18.8623ZM376.199 22.7881L375.623 21.9709L375.199 22.2697V22.7881H376.199ZM376.199 26.1426H375.199V28.0745L376.777 26.959L376.199 26.1426ZM381.502 22.3926V21.3926H381.184L380.925 21.5761L381.502 22.3926ZM381.751 22.3926H382.751V21.3926H381.751V22.3926ZM381.751 41H385.032V39H381.751V41ZM386.032 40V18.8623H384.032V40H386.032ZM385.032 17.8623H381.766V19.8623H385.032V17.8623ZM381.189 18.0451L375.623 21.9709L376.776 23.6053L382.342 19.6795L381.189 18.0451ZM375.199 22.7881V26.1426H377.199V22.7881H375.199ZM376.777 26.959L382.079 23.209L380.925 21.5761L375.622 25.3261L376.777 26.959ZM381.502 23.3926H381.751V21.3926H381.502V23.3926ZM380.751 22.3926V40H382.751V22.3926H380.751ZM392.078 40L391.19 39.5401L390.434 41H392.078V40ZM395.521 40V41H396.135L396.413 40.4518L395.521 40ZM404.72 21.8359L405.612 22.2877L405.72 22.0747V21.8359H404.72ZM404.72 18.8623H405.72V17.8623H404.72V18.8623ZM390.32 18.8623V17.8623H389.32V18.8623H390.32ZM390.32 21.7773H389.32V22.7773H390.32V21.7773ZM401.395 21.7773H402.395V20.7773H401.395V21.7773ZM401.395 22.0117L402.283 22.4716L402.395 22.2553V22.0117H401.395ZM392.078 41H395.521V39H392.078V41ZM396.413 40.4518L405.612 22.2877L403.828 21.3841L394.628 39.5482L396.413 40.4518ZM405.72 21.8359V18.8623H403.72V21.8359H405.72ZM404.72 17.8623H390.32V19.8623H404.72V17.8623ZM389.32 18.8623V21.7773H391.32V18.8623H389.32ZM390.32 22.7773H401.395V20.7773H390.32V22.7773ZM400.395 21.7773V22.0117H402.395V21.7773H400.395ZM400.507 21.5518L391.19 39.5401L392.966 40.4599L402.283 22.4716L400.507 21.5518ZM416.731 40H415.731V41H416.731V40ZM419.896 40V41H420.896V40H419.896ZM419.896 35.9131V34.9131H418.896V35.9131H419.896ZM422.811 35.9131V36.9131H423.811V35.9131H422.811ZM422.811 32.9834H423.811V31.9834H422.811V32.9834ZM419.896 32.9834H418.896V33.9834H419.896V32.9834ZM419.896 18.8623H420.896V17.8623H419.896V18.8623ZM415.223 18.8623V17.8623H414.688L414.391 18.3071L415.223 18.8623ZM406.419 32.8662L405.541 32.3866L405.419 32.6107V32.8662H406.419ZM406.419 35.9131H405.419V36.9131H406.419V35.9131ZM416.731 35.9131H417.731V34.9131H416.731V35.9131ZM409.568 32.8516L408.702 32.3523L408.568 32.584V32.8516H409.568ZM416.585 21.748V20.748H416.06L415.762 21.1797L416.585 21.748ZM416.775 21.748H417.775V20.748H416.775V21.748ZM416.775 33.0566V34.0566H417.775V33.0566H416.775ZM409.568 33.0566H408.568V34.0566H409.568V33.0566ZM416.731 41H419.896V39H416.731V41ZM420.896 40V35.9131H418.896V40H420.896ZM419.896 36.9131H422.811V34.9131H419.896V36.9131ZM423.811 35.9131V32.9834H421.811V35.9131H423.811ZM422.811 31.9834H419.896V33.9834H422.811V31.9834ZM420.896 32.9834V18.8623H418.896V32.9834H420.896ZM419.896 17.8623H415.223V19.8623H419.896V17.8623ZM414.391 18.3071C410.627 23.9452 407.455 28.8861 405.541 32.3866L407.296 33.3458C409.162 29.9323 412.289 25.0587 416.054 19.4175L414.391 18.3071ZM405.419 32.8662V35.9131H407.419V32.8662H405.419ZM406.419 36.9131H416.731V34.9131H406.419V36.9131ZM415.731 35.9131V40H417.731V35.9131H415.731ZM410.435 33.3509C412.91 29.0564 415.326 25.3295 417.408 22.3164L415.762 21.1797C413.654 24.231 411.208 28.0042 408.702 32.3523L410.435 33.3509ZM416.585 22.748H416.775V20.748H416.585V22.748ZM415.775 21.748V33.0566H417.775V21.748H415.775ZM416.775 32.0566H409.568V34.0566H416.775V32.0566ZM410.568 33.0566V32.8516H408.568V33.0566H410.568Z" fill="#F56A8D" mask="url(#path-12-outside-1_205_158)"/>
<path d="M601.424 30.9922V29.0732C605.716 28.707 608.191 26.4658 608.191 22.877C608.191 19.8447 606.463 17.9844 602.786 17.0908L601.424 16.7832V10.4697C603.357 10.7041 604.676 11.9639 604.734 13.5752H607.796C607.708 10.3086 605.218 7.99414 601.424 7.65723V5.63574H599.417V7.65723C595.462 8.02344 593.06 10.2646 593.06 13.6484C593.06 16.5049 594.847 18.4678 598.113 19.3027L599.417 19.6396V26.3193C597.234 26.0703 595.828 24.8545 595.682 23.1113H592.576C592.591 26.5098 595.228 28.8096 599.417 29.0879V30.9922H601.424ZM605.071 23.2139C605.071 25.0742 603.738 26.2168 601.424 26.3486V20.0205C603.914 20.5186 605.071 21.5293 605.071 23.2139ZM596.194 13.3848C596.194 11.7881 597.542 10.5576 599.417 10.4551V16.3584C597.308 15.9336 596.194 14.8936 596.194 13.3848ZM622.356 29H625.521V24.9131H628.436V21.9834H625.521V7.8623H620.848C617.083 13.502 613.934 18.4092 612.044 21.8662V24.9131H622.356V29ZM615.193 21.8516C617.684 17.5303 620.115 13.7803 622.21 10.748H622.4V22.0566H615.193V21.8516ZM639.759 29.5127C644.314 29.5127 647.405 26.5391 647.405 22.1592C647.405 17.999 644.578 15.0693 640.564 15.0693C638.558 15.0693 637.063 15.7432 636.097 16.9883H635.848L636.404 10.792H646.175V7.8623H633.841L632.728 19.9619H635.73C636.551 18.5996 638.016 17.7939 639.832 17.7939C642.41 17.7939 644.197 19.5957 644.197 22.2471C644.197 24.8838 642.425 26.627 639.788 26.627C637.474 26.627 635.76 25.2646 635.511 23.2139H632.391C632.581 26.9199 635.555 29.5127 639.759 29.5127ZM656.429 29H659.71V7.8623H656.443L650.877 11.7881V15.1426L656.18 11.3926H656.429V29Z" fill="#00DDA3"/>
<defs>
<filter id="filter0_d_205_158" x="-4" y="267" width="758" height="96" filterUnits="userSpaceOnUse" color-interpolation-filters="sRGB">
<feFlood flood-opacity="0" result="BackgroundImageFix"/>
<feColorMatrix in="SourceAlpha" type="matrix" values="0 0 0 0 0 0 0 0 0 0 0 0 0 0 0 0 0 0 127 0" result="hardAlpha"/>
<feOffset dy="4"/>
<feGaussianBlur stdDeviation="2"/>
<feComposite in2="hardAlpha" operator="out"/>
<feColorMatrix type="matrix" values="0 0 0 0 0 0 0 0 0 0 0 0 0 0 0 0 0 0 0.25 0"/>
<feBlend mode="normal" in2="BackgroundImageFix" result="effect1_dropShadow_205_158"/>
<feBlend mode="normal" in="SourceGraphic" in2="effect1_dropShadow_205_158" result="shape"/>
</filter>
<filter id="filter1_d_205_158" x="56.9999" y="50.7006" width="622.5" height="186.3" filterUnits="userSpaceOnUse" color-interpolation-filters="sRGB">
<feFlood flood-opacity="0" result="BackgroundImageFix"/>
<feColorMatrix in="SourceAlpha" type="matrix" values="0 0 0 0 0 0 0 0 0 0 0 0 0 0 0 0 0 0 127 0" result="hardAlpha"/>
<feOffset dy="4"/>
<feGaussianBlur stdDeviation="2"/>
<feComposite in2="hardAlpha" operator="out"/>
<feColorMatrix type="matrix" values="0 0 0 0 0 0 0 0 0 0 0 0 0 0 0 0 0 0 0.25 0"/>
<feBlend mode="normal" in2="BackgroundImageFix" result="effect1_dropShadow_205_158"/>
<feBlend mode="normal" in="SourceGraphic" in2="effect1_dropShadow_205_158" result="shape"/>
</filter>
</defs>
</svg>
