<svg width="200" height="211" viewBox="0 0 200 211" fill="none" xmlns="http://www.w3.org/2000/svg">
<g filter="url(#filter0_d_11_189)">
<path d="M4.51175 77.294C6.94058 80.4314 10.0122 83.072 13.4199 85.0991C16.875 87.1554 20.6881 88.4994 24.5998 89.3833C28.8182 90.3329 33.3837 90.6726 37.3575 88.6602C40.9624 86.8376 43.5811 83.1633 43.866 79.1129C44.1399 75.2487 41.9631 71.1032 38.3728 69.4998C34.2237 67.6444 29.4026 68.8936 26.2068 71.9871C23.263 74.8359 21.7436 78.8937 21.3857 82.9113C21.0424 86.7938 21.9262 90.7785 23.7451 94.2154C27.4194 101.155 35.4144 105.3 43.2086 104.504C44.2203 104.402 45.2247 104.241 46.2145 103.993C47.1422 103.759 47.7886 102.671 47.4891 101.747C47.1787 100.79 46.2364 100.22 45.2429 100.472C44.8412 100.574 44.4358 100.662 44.0267 100.735C43.9354 100.749 43.8441 100.768 43.7528 100.782C43.7308 100.786 43.278 100.863 43.5848 100.812C43.8879 100.76 43.4423 100.83 43.4167 100.83C43.278 100.844 43.1428 100.859 43.004 100.874C42.1786 100.947 41.3459 100.965 40.5168 100.925C40.1004 100.903 39.6877 100.866 39.275 100.823C38.9353 100.786 39.2932 100.83 39.348 100.833C39.2348 100.823 39.1179 100.801 39.0047 100.782C38.7782 100.746 38.5481 100.706 38.3217 100.662C37.4817 100.497 36.6562 100.278 35.8454 100.001C35.4838 99.8766 34.9944 99.778 34.6803 99.5588C34.7205 99.588 35.0492 99.7195 34.7351 99.5807C34.6511 99.5442 34.5671 99.504 34.4831 99.4675C34.253 99.3616 34.0229 99.252 33.7964 99.1351C33.0367 98.748 32.3026 98.306 31.605 97.8166C31.4553 97.7107 31.3055 97.6011 31.1558 97.4916C30.7905 97.2249 31.3603 97.6632 31.1411 97.4806C31.0535 97.4076 30.9622 97.3382 30.8709 97.2615C30.5495 96.9985 30.239 96.7209 29.9395 96.4324C29.64 96.1438 29.3478 95.8444 29.0703 95.5339C28.9315 95.3768 28.7927 95.2198 28.6575 95.0591C28.5845 94.9714 28.5114 94.8801 28.4384 94.7888C28.1937 94.4966 28.6283 95.0518 28.3836 94.7194C27.8905 94.0437 27.4303 93.3461 27.0249 92.612C26.8241 92.2468 26.6341 91.8706 26.4588 91.4944C26.4186 91.4104 26.3821 91.3264 26.3419 91.2387C26.3346 91.2241 26.1593 90.8004 26.2689 91.0744C26.3785 91.3446 26.2105 90.921 26.2031 90.9064C26.1593 90.7968 26.1191 90.6909 26.079 90.5813C25.7795 89.7741 25.5348 88.9487 25.3485 88.1086C25.2572 87.6996 25.1805 87.2869 25.1147 86.8741C25.1001 86.7828 25.0819 86.6879 25.0746 86.5966C25.1147 87.0275 25.0965 86.7609 25.0855 86.666C25.06 86.4103 25.0307 86.1583 25.0125 85.9026C24.9467 85.0443 24.9431 84.1824 24.9979 83.3277C25.0125 83.1195 25.0307 82.9113 25.049 82.7031C25.06 82.5972 25.0892 81.9142 25.0782 82.4292C25.0855 82.0055 25.2243 81.5417 25.3193 81.129C25.5092 80.278 25.7649 79.4416 26.0863 78.6308C26.1228 78.5431 26.1557 78.4518 26.1958 78.3641C26.0278 78.7221 26.1484 78.481 26.1812 78.4043C26.2835 78.1888 26.3821 77.9697 26.488 77.7578C26.6816 77.3743 26.8934 76.9982 27.1199 76.6366C27.3427 76.275 27.5801 75.9097 27.8467 75.581C27.5655 75.9244 27.9855 75.424 28.0549 75.3436C28.2266 75.1464 28.4019 74.9565 28.5845 74.7702C28.8657 74.4853 29.1616 74.2114 29.472 73.9594C29.5597 73.89 29.7679 73.6599 29.4939 73.9375C29.5524 73.8754 29.6583 73.8169 29.724 73.7695C29.9176 73.6307 30.1185 73.4992 30.323 73.3787C30.5093 73.2654 30.6992 73.1595 30.8928 73.0609C30.9914 73.0098 31.5904 72.7468 31.185 72.9112C31.616 72.7395 32.0506 72.5934 32.4998 72.4802C32.7117 72.4254 32.9235 72.3816 33.139 72.3414C33.2266 72.3268 33.3326 72.2976 33.4239 72.2939C32.9965 72.3122 33.3289 72.3085 33.4421 72.2976C33.8987 72.2574 34.3552 72.2464 34.8118 72.2756C34.9067 72.2829 35.0017 72.2939 35.0967 72.2976C35.5605 72.3268 34.8227 72.2391 35.1076 72.2976C35.3195 72.3377 35.5313 72.3743 35.7395 72.4254C35.9257 72.4692 36.1084 72.524 36.291 72.5824C36.4042 72.619 36.5138 72.6664 36.627 72.703C36.7512 72.7505 36.7183 72.7358 36.5247 72.6555C36.5905 72.6847 36.6562 72.7139 36.722 72.7431C37.0689 72.9075 37.405 73.1011 37.7227 73.3202C37.7446 73.3348 38.0806 73.5978 37.8505 73.4079C37.6204 73.218 37.9492 73.4955 37.9674 73.5101C38.1318 73.6526 38.2852 73.7987 38.4386 73.9557C38.5591 74.0799 38.676 74.2077 38.7855 74.3392C38.8038 74.3611 39.0522 74.7008 38.8842 74.4598C38.7162 74.215 38.9572 74.5693 38.9718 74.5876C39.1946 74.909 39.3918 75.245 39.5672 75.5956C39.6146 75.6943 39.6585 75.7929 39.7059 75.8915C39.8301 76.1362 39.5525 75.4715 39.6986 75.8769C39.7571 76.0412 39.8192 76.2019 39.874 76.3699C40.0091 76.7863 40.1004 77.21 40.1807 77.641C40.2136 77.809 40.1296 77.8528 40.1698 77.546C40.1625 77.6154 40.1881 77.7323 40.1954 77.8053C40.2136 78.0026 40.2209 78.1961 40.2246 78.3934C40.2282 78.5906 40.2246 78.7842 40.2136 78.9814C40.21 79.069 40.2027 79.1567 40.1954 79.2407C40.1881 79.3284 40.1807 79.416 40.1698 79.5C40.1807 79.4233 40.1881 79.3503 40.199 79.2736C40.2538 79.6096 40.0274 80.1392 39.9287 80.4642C39.8703 80.6578 39.8046 80.8514 39.7352 81.0413C39.695 81.1472 39.611 81.4504 39.7425 81.045C39.7023 81.1728 39.6292 81.297 39.5745 81.4139C39.4064 81.7608 39.2165 82.0932 39.012 82.4183C38.9024 82.5899 38.7855 82.7579 38.6687 82.9223C38.4568 83.2218 38.7052 82.8967 38.7088 82.8785C38.7015 82.9405 38.4897 83.1451 38.4495 83.1926C38.1829 83.503 37.898 83.7989 37.5985 84.0764C37.4634 84.2006 37.3283 84.3211 37.1895 84.438C37.1749 84.449 36.8279 84.7339 37.0543 84.5512C37.2625 84.3869 36.8973 84.6645 36.8534 84.6937C36.5174 84.9311 36.1705 85.1466 35.8125 85.3438C35.6336 85.4424 35.4509 85.5337 35.2647 85.6214C35.1734 85.6652 35.0784 85.7054 34.9871 85.7456C35.3742 85.5666 34.9177 85.7675 34.8629 85.7894C34.4392 85.9464 34.0083 86.0779 33.5663 86.1839C33.3727 86.2313 33.1755 86.2752 32.9783 86.3117C32.8541 86.3336 32.7299 86.3555 32.6057 86.3774C32.5327 86.3884 32.456 86.403 32.383 86.4103C32.5948 86.3811 32.6313 86.3774 32.4925 86.392C31.5502 86.4724 30.6189 86.5162 29.6692 86.4687C29.2054 86.4432 28.7415 86.403 28.2813 86.3519C28.1791 86.3409 28.0768 86.3263 27.9745 86.3153C28.358 86.3628 28.0768 86.3299 28.0001 86.3153C27.7444 86.2752 27.4888 86.235 27.2331 86.1912C25.3996 85.8697 23.5844 85.4022 21.8057 84.8544C20.9474 84.5914 20.0964 84.2883 19.2637 83.9523C19.1504 83.9084 19.0372 83.8609 18.9276 83.8135C18.9861 83.839 19.2746 83.9632 18.9605 83.8281C18.7596 83.7404 18.5587 83.6528 18.3615 83.5614C17.9415 83.3715 17.5251 83.1706 17.1124 82.9588C15.509 82.1443 13.975 81.1947 12.5323 80.1173C12.441 80.0479 12.0101 79.7119 12.3242 79.9602C12.1342 79.8105 11.9443 79.6571 11.7544 79.5037C11.4184 79.2261 11.086 78.9412 10.761 78.649C10.0743 78.0318 9.41323 77.3853 8.78867 76.706C8.19334 76.0631 7.63087 75.3948 7.09398 74.7008C6.50594 73.9411 5.1217 74.0361 4.51175 74.7008C3.77398 75.5153 3.8872 76.4832 4.51175 77.294Z" fill="#33404F"/>
<path d="M182.422 79.92H167.864C165.46 74.2443 161.983 69.0141 157.659 64.4084V26.99C143.974 26.99 132.147 34.9485 126.556 46.4899C120.931 45.0655 114.981 44.2949 108.823 44.2949C74.1112 44.2949 45.9697 68.5941 45.9697 98.569C45.9697 113.701 53.143 127.383 64.71 137.226V160.005H89.8894V150.334C95.8647 151.963 102.223 152.843 108.823 152.843C115.423 152.843 121.782 151.963 127.757 150.334V159.454H152.937V137.222C159.493 131.641 164.642 124.83 167.867 117.218H182.426C186.056 117.218 189 114.274 189 110.644V86.4907C188.996 82.8602 186.053 79.92 182.422 79.92Z" fill="white" stroke="#33404F" stroke-width="4" stroke-miterlimit="10"/>
<path d="M141.483 86.655C143.683 86.655 145.467 84.871 145.467 82.6703C145.467 80.4696 143.683 78.6855 141.483 78.6855C139.282 78.6855 137.498 80.4696 137.498 82.6703C137.498 84.871 139.282 86.655 141.483 86.655Z" fill="#33404F"/>
<path d="M141.483 109.387C147.314 109.387 152.042 106.966 152.042 103.978C152.042 100.991 147.314 98.569 141.483 98.569C135.651 98.569 130.924 100.991 130.924 103.978C130.924 106.966 135.651 109.387 141.483 109.387Z" fill="#00DDA3"/>
<path d="M88.6805 62.1769C101.533 55.7998 113.718 56.1176 125.328 62.1769" stroke="#33404F" stroke-width="4" stroke-miterlimit="10" stroke-linecap="round"/>
<path d="M107.004 49.7786C116.884 49.7786 124.894 41.7693 124.894 31.8893C124.894 22.0093 116.884 14 107.004 14C97.1244 14 89.1151 22.0093 89.1151 31.8893C89.1151 41.7693 97.1244 49.7786 107.004 49.7786Z" fill="#00DDA3" stroke="#33404F" stroke-width="4" stroke-miterlimit="10"/>
<path d="M107.004 41.4877C112.305 41.4877 116.603 37.1903 116.603 31.8893C116.603 26.5882 112.305 22.2909 107.004 22.2909C101.703 22.2909 97.406 26.5882 97.406 31.8893C97.406 37.1903 101.703 41.4877 107.004 41.4877Z" fill="#00DDA3" stroke="#33404F" stroke-width="4" stroke-miterlimit="10"/>
<path d="M83.3116 146.166H48.8478C48.0407 146.166 47.3869 145.512 47.3869 144.705V140.72C47.3869 139.913 48.0407 139.259 48.8478 139.259H83.3116C84.1187 139.259 84.7725 139.913 84.7725 140.72V144.705C84.7725 145.512 84.1151 146.166 83.3116 146.166Z" fill="#33404F"/>
<path d="M71.8066 154.314H37.3428C36.5357 154.314 35.8819 153.661 35.8819 152.853V148.869C35.8819 148.061 36.5357 147.408 37.3428 147.408H71.8066C72.6137 147.408 73.2675 148.061 73.2675 148.869V152.853C73.2675 153.661 72.6137 154.314 71.8066 154.314Z" fill="#00DDA3" stroke="#33404F" stroke-width="4" stroke-miterlimit="10"/>
<path d="M83.3116 162.463H48.8478C48.0407 162.463 47.3869 161.809 47.3869 161.002V157.017C47.3869 156.21 48.0407 155.556 48.8478 155.556H83.3116C84.1187 155.556 84.7725 156.21 84.7725 157.017V161.002C84.7725 161.809 84.1151 162.463 83.3116 162.463Z" fill="#33404F"/>
<path d="M111 169C108.228 178.451 102.711 184.312 94 186C103.157 188.11 109.045 193.549 111 203C112.053 193.354 118.106 188.02 128 186C117.756 184.529 112.775 178.234 111 169Z" fill="#00DDA3"/>
<circle cx="29" cy="29" r="5" stroke="#33404F" stroke-width="4"/>
<circle cx="189" cy="7" r="7" fill="#33404F"/>
</g>
<defs>
<filter id="filter0_d_11_189" x="0" y="0" width="200" height="211" filterUnits="userSpaceOnUse" color-interpolation-filters="sRGB">
<feFlood flood-opacity="0" result="BackgroundImageFix"/>
<feColorMatrix in="SourceAlpha" type="matrix" values="0 0 0 0 0 0 0 0 0 0 0 0 0 0 0 0 0 0 127 0" result="hardAlpha"/>
<feOffset dy="4"/>
<feGaussianBlur stdDeviation="2"/>
<feComposite in2="hardAlpha" operator="out"/>
<feColorMatrix type="matrix" values="0 0 0 0 0 0 0 0 0 0 0 0 0 0 0 0 0 0 0.25 0"/>
<feBlend mode="normal" in2="BackgroundImageFix" result="effect1_dropShadow_11_189"/>
<feBlend mode="normal" in="SourceGraphic" in2="effect1_dropShadow_11_189" result="shape"/>
</filter>
</defs>
</svg>
